<svg xmlns="http://www.w3.org/2000/svg" viewBox="0 0 32 32"><g><path fill="#3776AB" d="M16.002 2.002c-7.732 0-7.5 3.348-7.5 3.348v3.35h7.5v1.004H6.002S2 9.02 2 16.002c0 6.982 3.348 6.65 3.348 6.65h2.006v-2.006s-.02-3.348 3.348-3.348h7.5s3.348.02 3.348-3.348v-7.5s.02-3.348-3.348-3.348zm-4.5 2.004a1.002 1.002 0 1 1 0 2.004 1.002 1.002 0 0 1 0-2.004z"/><path fill="#FFD43B" d="M15.998 29.998c7.732 0 7.5-3.348 7.5-3.348v-3.35h-7.5v-1.004h7.5s4.002-.018 4.002-7c0-6.982-3.348-6.65-3.348-6.65h-2.006v2.006s.02 3.348-3.348 3.348h-7.5s-3.348-.02-3.348 3.348v7.5s-.02 3.348 3.348 3.348zm4.5-2.004a1.002 1.002 0 1 1 0-2.004 1.002 1.002 0 0 1 0 2.004z"/></g></svg> 